<?xml version="1.0" encoding="UTF-8"?>
<svg xmlns="http://www.w3.org/2000/svg" xmlns:xlink="http://www.w3.org/1999/xlink" width="120px" height="48px" viewBox="0 0 119 48" version="1.1">
<g id="surface1">
<path style=" stroke:none;fill-rule:nonzero;fill:rgb(0%,0%,0%);fill-opacity:1;" d="M 97.457031 0.078125 C 97.402344 0.0898438 97.324219 0.160156 97.292969 0.226562 C 97.253906 0.296875 97.132812 0.4375 97.023438 0.535156 C 96.847656 0.691406 95.992188 1.5 95.179688 2.285156 C 95.03125 2.421875 94.648438 2.78125 94.339844 3.074219 C 93.804688 3.570312 93.507812 3.855469 92.503906 4.808594 C 91.816406 5.460938 91.652344 5.617188 91.179688 6.058594 C 90.917969 6.300781 90.59375 6.609375 90.464844 6.734375 C 90.152344 7.046875 88.542969 8.570312 88.160156 8.917969 C 87.992188 9.070312 87.640625 9.402344 87.371094 9.664062 C 87.097656 9.925781 86.558594 10.4375 86.164062 10.8125 C 85.773438 11.183594 85.375 11.5625 85.285156 11.652344 C 85.191406 11.738281 84.804688 12.105469 84.421875 12.464844 C 84.042969 12.824219 83.507812 13.328125 83.238281 13.585938 C 82.96875 13.839844 82.53125 14.253906 82.273438 14.507812 C 82.007812 14.753906 81.726562 14.992188 81.652344 15.035156 C 81.515625 15.105469 81.515625 15.105469 81.203125 14.839844 C 81.03125 14.695312 80.851562 14.53125 80.800781 14.472656 C 80.75 14.417969 80.570312 14.261719 80.40625 14.121094 C 80.238281 13.980469 80 13.765625 79.871094 13.648438 C 79.746094 13.527344 79.546875 13.351562 79.429688 13.257812 C 79.3125 13.164062 79.171875 13.042969 79.121094 12.988281 C 79.066406 12.933594 78.890625 12.769531 78.726562 12.628906 C 78.566406 12.488281 78.320312 12.265625 78.175781 12.136719 C 77.929688 11.90625 76.757812 10.867188 76.578125 10.71875 C 76.53125 10.679688 76.425781 10.582031 76.34375 10.507812 C 76.089844 10.269531 75.386719 9.632812 74.925781 9.226562 C 74.683594 9.011719 74.464844 8.8125 74.4375 8.78125 C 74.414062 8.746094 74.214844 8.570312 73.996094 8.386719 C 73.777344 8.203125 73.558594 8.011719 73.507812 7.964844 C 73.265625 7.742188 72.09375 6.703125 71.957031 6.589844 C 71.890625 6.535156 71.75 6.464844 71.648438 6.4375 C 71.519531 6.398438 69.527344 6.382812 64.792969 6.382812 C 58.28125 6.382812 58.121094 6.382812 58.011719 6.472656 C 57.902344 6.5625 57.902344 6.566406 57.984375 6.710938 C 58.035156 6.789062 58.164062 6.9375 58.265625 7.035156 C 58.371094 7.132812 58.550781 7.308594 58.667969 7.414062 C 58.785156 7.527344 59.128906 7.863281 59.433594 8.15625 C 59.742188 8.449219 60.441406 9.128906 60.996094 9.667969 C 62.007812 10.65625 64.054688 12.652344 65.097656 13.664062 C 65.40625 13.964844 65.972656 14.519531 66.363281 14.898438 C 67.488281 16 68.800781 17.261719 68.988281 17.425781 C 69.082031 17.507812 69.230469 17.59375 69.3125 17.621094 C 69.40625 17.644531 71.175781 17.664062 73.691406 17.664062 C 76.164062 17.664062 77.949219 17.679688 77.984375 17.703125 C 78.039062 17.742188 78.046875 17.785156 78.007812 17.90625 C 77.976562 18.019531 77.78125 18.234375 77.246094 18.730469 C 76.429688 19.488281 76.074219 19.824219 74.894531 20.953125 C 74.441406 21.390625 73.613281 22.167969 73.066406 22.675781 C 72.519531 23.1875 72.011719 23.660156 71.945312 23.71875 C 71.757812 23.90625 71.027344 24.59375 70.539062 25.046875 C 70.09375 25.46875 69.90625 25.640625 69.160156 26.351562 C 68.945312 26.558594 68.4375 27.042969 68.027344 27.425781 C 67.617188 27.808594 67.242188 28.160156 67.1875 28.21875 C 67.136719 28.269531 66.832031 28.554688 66.515625 28.847656 C 66.203125 29.140625 65.875 29.441406 65.792969 29.523438 C 65.714844 29.597656 65.390625 29.90625 65.074219 30.199219 C 64.757812 30.492188 64.292969 30.933594 64.039062 31.175781 C 62.886719 32.273438 62.578125 32.566406 62.34375 32.785156 C 62.203125 32.910156 62.011719 33.09375 61.917969 33.179688 C 61.828125 33.269531 61.5 33.570312 61.199219 33.855469 C 60.898438 34.136719 60.582031 34.429688 60.503906 34.507812 C 60.136719 34.859375 58.632812 36.28125 57.441406 37.398438 C 57.058594 37.757812 56.679688 38.109375 56.601562 38.191406 C 55.855469 38.902344 55.09375 39.621094 55 39.695312 C 54.828125 39.835938 54.6875 40.109375 54.761719 40.183594 C 54.804688 40.226562 56.792969 40.246094 63.769531 40.253906 C 68.691406 40.257812 72.78125 40.253906 72.863281 40.242188 C 73.136719 40.195312 73.386719 39.953125 75.597656 37.648438 C 76.21875 36.996094 78.28125 34.863281 78.734375 34.398438 C 78.949219 34.171875 79.570312 33.53125 80.101562 32.972656 C 81.921875 31.074219 81.726562 31.257812 81.890625 31.292969 C 81.996094 31.316406 82.402344 31.699219 83.53125 32.84375 C 84.351562 33.679688 85.226562 34.566406 85.46875 34.808594 C 85.714844 35.054688 86.660156 36.019531 87.574219 36.957031 C 89.425781 38.847656 94.054688 43.550781 96.121094 45.640625 C 96.859375 46.386719 97.617188 47.171875 97.8125 47.378906 L 98.160156 47.765625 L 108.363281 47.765625 C 116.238281 47.765625 118.578125 47.753906 118.621094 47.710938 C 118.652344 47.679688 118.675781 47.597656 118.675781 47.523438 C 118.675781 47.421875 118.613281 47.351562 118.363281 47.160156 C 118.191406 47.03125 117.9375 46.816406 117.792969 46.679688 C 117.648438 46.546875 117.441406 46.363281 117.332031 46.277344 C 117.226562 46.1875 117.082031 46.0625 117.007812 45.996094 C 116.730469 45.75 116.347656 45.421875 116.226562 45.328125 C 116.03125 45.175781 114.886719 44.203125 114.542969 43.894531 C 114.375 43.75 113.871094 43.316406 113.425781 42.9375 C 112.980469 42.5625 112.363281 42.03125 112.054688 41.765625 C 111.75 41.496094 111.398438 41.1875 111.265625 41.078125 C 110.4375 40.367188 108.660156 38.851562 108.386719 38.617188 C 108.210938 38.46875 108 38.289062 107.921875 38.21875 C 107.742188 38.054688 106.863281 37.300781 106.640625 37.117188 C 106.542969 37.039062 106.175781 36.726562 105.824219 36.417969 C 105.46875 36.105469 104.996094 35.703125 104.765625 35.511719 C 104.539062 35.324219 104.230469 35.0625 104.085938 34.933594 C 103.941406 34.800781 103.746094 34.628906 103.65625 34.554688 C 103.558594 34.476562 103.4375 34.375 103.378906 34.316406 C 103.324219 34.265625 102.945312 33.941406 102.535156 33.601562 C 102.125 33.261719 101.742188 32.933594 101.675781 32.878906 C 101.609375 32.816406 101.433594 32.660156 101.28125 32.519531 C 101.128906 32.378906 100.804688 32.097656 100.5625 31.898438 C 100.320312 31.699219 100.082031 31.503906 100.042969 31.460938 C 100 31.417969 99.882812 31.320312 99.785156 31.242188 C 99.507812 31.007812 97.855469 29.585938 97.765625 29.503906 C 97.722656 29.460938 97.609375 29.363281 97.511719 29.28125 C 97.414062 29.199219 96.890625 28.757812 96.355469 28.296875 C 95.816406 27.835938 95.277344 27.40625 95.15625 27.335938 L 94.9375 27.214844 L 90.441406 27.214844 C 86.144531 27.214844 85.941406 27.210938 85.871094 27.132812 C 85.824219 27.085938 85.792969 27.019531 85.792969 26.988281 C 85.792969 26.9375 86.214844 26.492188 88.136719 24.527344 C 88.671875 23.976562 89.121094 23.507812 89.140625 23.484375 C 89.15625 23.460938 89.613281 22.980469 90.164062 22.425781 C 90.710938 21.867188 91.578125 20.972656 92.09375 20.433594 C 92.609375 19.894531 93.480469 19 94.023438 18.445312 C 94.996094 17.449219 97.058594 15.316406 97.332031 15.027344 C 97.414062 14.949219 97.859375 14.484375 98.332031 14 C 100.675781 11.589844 101.226562 11.019531 102.257812 9.949219 C 102.871094 9.3125 103.855469 8.296875 104.445312 7.695312 C 105.035156 7.089844 105.835938 6.257812 106.230469 5.851562 C 107.210938 4.835938 108.6875 3.3125 109.652344 2.332031 C 111.402344 0.535156 111.429688 0.503906 111.429688 0.328125 C 111.429688 0.234375 111.40625 0.136719 111.375 0.101562 C 111.332031 0.0625 109.734375 0.046875 104.445312 0.0507812 C 100.660156 0.0546875 97.519531 0.0703125 97.457031 0.078125 Z M 97.457031 0.078125 "/>
<path style=" stroke:none;fill-rule:nonzero;fill:rgb(0%,0%,0%);fill-opacity:1;" d="M 24.4375 8.988281 C 24.316406 9.027344 23.945312 9.265625 23.625 9.503906 C 23.523438 9.582031 23.339844 9.714844 23.207031 9.808594 C 22.988281 9.964844 22.613281 10.238281 22.253906 10.507812 C 22.03125 10.675781 21.390625 11.152344 21.164062 11.316406 C 21.0625 11.390625 20.820312 11.5625 20.628906 11.703125 C 20.441406 11.839844 20.148438 12.054688 19.980469 12.175781 C 19.648438 12.414062 19.53125 12.503906 18.984375 12.914062 C 18.78125 13.0625 18.578125 13.199219 18.53125 13.214844 C 18.484375 13.230469 18.449219 13.257812 18.449219 13.28125 C 18.449219 13.300781 18.316406 13.40625 18.160156 13.519531 C 17.996094 13.625 17.78125 13.785156 17.6875 13.875 C 17.582031 13.957031 17.480469 14.027344 17.457031 14.027344 C 17.433594 14.027344 17.347656 14.082031 17.261719 14.152344 C 17.179688 14.226562 16.945312 14.398438 16.753906 14.539062 C 16.558594 14.679688 16.316406 14.855469 16.21875 14.9375 C 16.117188 15.011719 15.925781 15.15625 15.789062 15.253906 C 15.65625 15.351562 15.292969 15.617188 14.988281 15.84375 C 14.679688 16.074219 14.371094 16.300781 14.289062 16.355469 C 14.160156 16.445312 13.953125 16.59375 12.914062 17.359375 C 12.707031 17.511719 12.507812 17.648438 12.480469 17.664062 C 12.445312 17.675781 12.355469 17.746094 12.265625 17.816406 C 11.96875 18.058594 11.585938 18.351562 11.40625 18.472656 C 11.203125 18.613281 11.089844 18.695312 10.59375 19.070312 C 10.398438 19.21875 10.222656 19.339844 10.203125 19.339844 C 10.183594 19.339844 10.101562 19.394531 10.011719 19.464844 C 9.855469 19.601562 9.75 19.679688 9.136719 20.132812 C 8.929688 20.28125 8.710938 20.445312 8.648438 20.492188 C 8.582031 20.542969 8.398438 20.671875 8.230469 20.785156 C 8.0625 20.902344 7.851562 21.054688 7.761719 21.132812 C 7.667969 21.207031 7.429688 21.390625 7.230469 21.53125 C 7.035156 21.667969 6.808594 21.835938 6.730469 21.902344 C 6.644531 21.96875 6.496094 22.078125 6.394531 22.148438 C 6.292969 22.21875 6.125 22.339844 6.023438 22.421875 C 5.796875 22.59375 5.609375 22.722656 5.34375 22.90625 C 5.167969 23.027344 4.519531 23.507812 3.957031 23.929688 C 3.277344 24.441406 3.050781 24.605469 3.023438 24.605469 C 3.003906 24.605469 2.90625 24.675781 2.804688 24.753906 C 2.699219 24.839844 2.457031 25.023438 2.261719 25.164062 C 2.066406 25.304688 1.8125 25.5 1.699219 25.59375 C 1.582031 25.691406 1.472656 25.769531 1.453125 25.769531 C 1.402344 25.769531 0.816406 26.230469 0.589844 26.457031 C 0.488281 26.558594 0.328125 26.753906 0.242188 26.894531 L 0.078125 27.144531 L 0.0664062 30.179688 C 0.0585938 32.066406 0.0703125 33.261719 0.0976562 33.335938 C 0.128906 33.417969 0.199219 33.46875 0.320312 33.503906 C 0.441406 33.539062 3.640625 33.554688 10.53125 33.554688 C 19.8125 33.554688 20.578125 33.558594 20.636719 33.632812 C 20.6875 33.691406 20.703125 34.199219 20.714844 36.402344 L 20.722656 39.09375 L 20.867188 39.210938 L 21.011719 39.332031 L 26.652344 39.332031 L 26.707031 39.214844 C 26.746094 39.121094 26.761719 35.515625 26.761719 24.65625 L 26.761719 10.21875 L 26.59375 9.898438 C 26.398438 9.535156 26.246094 9.367188 25.878906 9.132812 C 25.632812 8.976562 25.613281 8.972656 25.089844 8.960938 C 24.796875 8.957031 24.503906 8.964844 24.4375 8.988281 Z M 20.597656 18.765625 C 20.617188 18.777344 20.671875 18.867188 20.722656 18.96875 C 20.816406 19.144531 20.816406 19.25 20.816406 23.511719 C 20.816406 28.199219 20.820312 28.0625 20.589844 28.195312 C 20.46875 28.253906 8.828125 28.257812 8.609375 28.199219 C 8.527344 28.171875 8.378906 28.085938 8.277344 28.007812 C 8.113281 27.878906 8.089844 27.835938 8.089844 27.664062 C 8.089844 27.496094 8.117188 27.445312 8.265625 27.304688 C 8.425781 27.15625 8.847656 26.828125 9.46875 26.386719 C 10.074219 25.953125 10.429688 25.691406 10.542969 25.601562 C 10.613281 25.550781 10.832031 25.394531 11.03125 25.253906 C 11.230469 25.113281 11.464844 24.941406 11.5625 24.871094 C 11.65625 24.800781 11.84375 24.671875 11.96875 24.582031 C 12.097656 24.492188 12.285156 24.359375 12.386719 24.285156 C 12.488281 24.203125 12.625 24.105469 12.6875 24.0625 C 12.753906 24.015625 12.929688 23.882812 13.082031 23.765625 C 13.5625 23.40625 13.957031 23.125 14.320312 22.882812 C 14.414062 22.816406 14.617188 22.671875 14.769531 22.554688 C 14.917969 22.4375 15.207031 22.230469 15.40625 22.089844 C 15.601562 21.949219 15.933594 21.707031 16.144531 21.554688 C 16.347656 21.398438 16.570312 21.238281 16.636719 21.195312 C 16.699219 21.148438 16.933594 20.980469 17.15625 20.820312 C 17.378906 20.660156 17.707031 20.421875 17.890625 20.296875 C 18.070312 20.164062 18.339844 19.96875 18.484375 19.851562 C 18.746094 19.644531 19.003906 19.457031 19.300781 19.269531 C 19.378906 19.21875 19.566406 19.089844 19.714844 18.976562 C 19.859375 18.867188 20.027344 18.757812 20.085938 18.734375 C 20.179688 18.695312 20.507812 18.714844 20.597656 18.765625 Z M 20.597656 18.765625 "/>
<path style=" stroke:none;fill-rule:nonzero;fill:rgb(0%,0%,0%);fill-opacity:1;" d="M 33.074219 9.777344 C 32.589844 9.902344 32.222656 10.242188 31.976562 10.785156 L 31.824219 11.128906 L 31.832031 22.046875 L 31.847656 32.972656 L 32 33.25 C 32.246094 33.699219 32.535156 33.972656 32.957031 34.15625 L 33.238281 34.277344 L 40.066406 34.277344 C 46.230469 34.277344 46.945312 34.265625 47.429688 34.195312 C 47.722656 34.15625 48.097656 34.101562 48.261719 34.085938 C 48.425781 34.070312 48.671875 34.015625 48.8125 33.96875 C 48.953125 33.921875 49.230469 33.859375 49.433594 33.832031 C 49.640625 33.808594 49.917969 33.738281 50.046875 33.675781 C 50.179688 33.613281 50.367188 33.546875 50.472656 33.53125 C 50.648438 33.496094 51.484375 33.171875 51.582031 33.09375 C 51.609375 33.070312 51.710938 33.027344 51.8125 32.996094 C 51.910156 32.960938 52.0625 32.886719 52.15625 32.828125 C 52.246094 32.765625 52.34375 32.714844 52.375 32.714844 C 52.46875 32.714844 53.546875 31.996094 54.136719 31.539062 C 54.515625 31.242188 55.917969 29.84375 56.1875 29.488281 C 56.382812 29.234375 56.601562 28.917969 56.921875 28.410156 C 57.171875 28.011719 57.691406 26.992188 57.691406 26.894531 C 57.691406 26.851562 57.734375 26.730469 57.789062 26.632812 C 57.90625 26.410156 58.175781 25.609375 58.25 25.28125 C 58.277344 25.152344 58.339844 24.957031 58.386719 24.839844 C 58.4375 24.714844 58.492188 24.390625 58.523438 24.046875 C 58.550781 23.726562 58.609375 23.296875 58.644531 23.089844 C 58.734375 22.597656 58.734375 21.367188 58.648438 20.90625 C 58.613281 20.714844 58.558594 20.296875 58.527344 19.984375 C 58.5 19.644531 58.4375 19.257812 58.367188 19.035156 C 58.003906 17.839844 57.898438 17.527344 57.800781 17.339844 C 57.738281 17.230469 57.691406 17.097656 57.691406 17.054688 C 57.691406 16.980469 57.417969 16.417969 57.125 15.890625 C 57.0625 15.773438 56.941406 15.558594 56.863281 15.410156 C 56.777344 15.265625 56.695312 15.144531 56.675781 15.144531 C 56.65625 15.144531 56.597656 15.066406 56.542969 14.96875 C 56.355469 14.636719 55.71875 13.878906 55.117188 13.261719 C 54.609375 12.746094 54.003906 12.25 53.234375 11.71875 C 52.773438 11.40625 51.578125 10.792969 51.144531 10.648438 C 51.003906 10.601562 50.816406 10.527344 50.726562 10.484375 C 50.636719 10.4375 50.417969 10.367188 50.238281 10.332031 C 50.0625 10.289062 49.824219 10.222656 49.71875 10.1875 C 49.199219 10.003906 48.105469 9.828125 46.941406 9.738281 C 46.535156 9.710938 43.871094 9.691406 39.835938 9.699219 C 33.890625 9.699219 33.355469 9.707031 33.074219 9.777344 Z M 47.125 15.269531 C 47.820312 15.40625 48.621094 15.625 48.863281 15.75 C 48.976562 15.808594 49.152344 15.882812 49.257812 15.917969 C 49.367188 15.957031 49.523438 16.035156 49.613281 16.097656 C 49.699219 16.15625 49.898438 16.28125 50.054688 16.378906 C 50.558594 16.707031 51.34375 17.414062 51.609375 17.785156 C 52.03125 18.375 52.425781 19.046875 52.488281 19.277344 C 52.515625 19.386719 52.5625 19.488281 52.578125 19.503906 C 52.644531 19.539062 52.894531 20.351562 52.960938 20.738281 C 53.042969 21.199219 53.042969 22.796875 52.964844 23.230469 C 52.890625 23.628906 52.757812 24.0625 52.585938 24.464844 C 52.515625 24.632812 52.441406 24.820312 52.421875 24.875 C 52.390625 24.988281 52.234375 25.253906 51.9375 25.722656 C 51.425781 26.53125 50.628906 27.304688 49.75 27.84375 C 49.613281 27.929688 49.429688 28.039062 49.351562 28.089844 C 49.269531 28.144531 49.089844 28.222656 48.957031 28.265625 C 48.820312 28.3125 48.644531 28.386719 48.5625 28.4375 C 48.484375 28.484375 48.261719 28.554688 48.074219 28.589844 C 47.882812 28.628906 47.628906 28.6875 47.507812 28.726562 C 47.042969 28.875 46.164062 28.898438 42.21875 28.882812 C 38.359375 28.871094 38.332031 28.871094 38.199219 28.773438 C 38.128906 28.722656 38.023438 28.605469 37.96875 28.519531 L 37.859375 28.367188 L 37.859375 22.078125 C 37.859375 16.859375 37.871094 15.769531 37.925781 15.644531 C 37.996094 15.46875 38.292969 15.210938 38.464844 15.179688 C 38.53125 15.164062 40.386719 15.160156 42.597656 15.164062 C 46.457031 15.171875 46.632812 15.179688 47.125 15.269531 Z M 47.125 15.269531 "/>
</g>
</svg>
