<?xml version="1.0" encoding="UTF-8"?>
<svg xmlns="http://www.w3.org/2000/svg" xmlns:xlink="http://www.w3.org/1999/xlink" width="120px" height="23px" viewBox="0 0 121 23" version="1.1">
<g id="surface1">
<path style=" stroke:none;fill-rule:evenodd;fill:rgb(0%,44.705883%,80.784315%);fill-opacity:1;" d="M 33.519531 22.914062 L 41.605469 6.394531 L 42.917969 6.394531 L 42.917969 22.933594 L 49.375 22.933594 L 49.375 0.0703125 L 37.746094 0.0703125 L 30.851562 13.742188 L 23.894531 0.0859375 L 12.316406 0.125 L 12.300781 22.933594 L 18.742188 22.933594 L 18.75 6.394531 L 20.042969 6.394531 L 28.125 22.914062 Z M 33.519531 22.914062 "/>
<path style=" stroke:none;fill-rule:evenodd;fill:rgb(0%,44.705883%,80.784315%);fill-opacity:1;" d="M 0 22.933594 L 7.230469 22.933594 L 7.230469 0.0703125 L 0 0.0703125 Z M 0 22.933594 "/>
<path style=" stroke:none;fill-rule:evenodd;fill:rgb(0%,44.705883%,80.784315%);fill-opacity:1;" d="M 62.261719 0.0703125 L 50.648438 22.933594 L 58.371094 22.933594 L 60.394531 19.046875 L 74.828125 19.046875 L 76.796875 22.933594 L 84.539062 22.933594 L 72.917969 0.0703125 Z M 67.960938 5.265625 L 67.25 5.265625 L 62.851562 13.925781 L 72.308594 13.925781 Z M 67.960938 5.265625 "/>
<path style=" stroke:none;fill-rule:evenodd;fill:rgb(0%,44.705883%,80.784315%);fill-opacity:1;" d="M 94.378906 22.933594 L 101.65625 14.671875 L 108.855469 22.933594 L 118.390625 22.933594 L 107.636719 10.789062 L 116.640625 0.0703125 L 107.828125 0.0703125 L 101.597656 7.496094 L 95.546875 0.0703125 L 86.570312 0.0703125 L 95.628906 10.800781 L 84.8125 22.933594 Z M 94.378906 22.933594 "/>
<path style=" stroke:none;fill-rule:evenodd;fill:rgb(0%,44.705883%,80.784315%);fill-opacity:1;" d="M 121 1.742188 C 121 2.703125 120.222656 3.480469 119.261719 3.480469 C 118.300781 3.480469 117.519531 2.703125 117.519531 1.742188 C 117.519531 0.78125 118.300781 0 119.261719 0 C 120.222656 0 121 0.78125 121 1.742188 Z M 120.699219 1.742188 C 120.699219 0.945312 120.054688 0.300781 119.261719 0.300781 C 118.464844 0.300781 117.820312 0.945312 117.820312 1.742188 C 117.820312 2.535156 118.464844 3.179688 119.261719 3.179688 C 120.054688 3.179688 120.699219 2.535156 120.699219 1.742188 Z M 119.390625 1.085938 L 118.882812 1.085938 L 118.882812 1.722656 L 119.402344 1.722656 C 119.464844 1.722656 119.515625 1.71875 119.546875 1.707031 C 119.582031 1.699219 119.617188 1.679688 119.640625 1.652344 C 119.675781 1.609375 119.691406 1.523438 119.691406 1.394531 C 119.691406 1.277344 119.679688 1.195312 119.648438 1.152344 C 119.628906 1.121094 119.59375 1.105469 119.554688 1.097656 C 119.511719 1.089844 119.457031 1.085938 119.390625 1.085938 Z M 119.457031 0.777344 C 119.699219 0.777344 119.867188 0.824219 119.953125 0.917969 C 120.027344 1.003906 120.066406 1.144531 120.066406 1.335938 C 120.066406 1.546875 120.039062 1.683594 119.984375 1.75 C 119.933594 1.808594 119.867188 1.851562 119.75 1.875 L 119.75 1.878906 C 119.859375 1.890625 119.929688 1.925781 119.984375 1.992188 C 120.035156 2.0625 120.050781 2.171875 120.050781 2.3125 L 120.050781 2.648438 L 119.675781 2.648438 L 119.675781 2.386719 C 119.675781 2.320312 119.675781 2.265625 119.667969 2.222656 C 119.660156 2.179688 119.644531 2.144531 119.621094 2.117188 C 119.59375 2.085938 119.5625 2.066406 119.527344 2.058594 C 119.492188 2.050781 119.445312 2.046875 119.386719 2.046875 L 118.882812 2.046875 L 118.882812 2.648438 L 118.523438 2.648438 L 118.527344 0.777344 Z M 119.457031 0.777344 "/>
</g>
</svg>
