<?xml version="1.0" encoding="UTF-8"?>
<svg xmlns="http://www.w3.org/2000/svg" xmlns:xlink="http://www.w3.org/1999/xlink" width="128px" height="128px" viewBox="0 0 128 128" version="1.1">
<g id="surface1">
<path style=" stroke:none;fill-rule:nonzero;fill:rgb(0%,0%,0%);fill-opacity:1;" d="M 118.441406 38.347656 L 102.8125 38.347656 L 102.8125 34.683594 C 102.8125 33.625 101.957031 32.769531 100.902344 32.769531 L 91.339844 32.769531 C 90.285156 32.769531 89.429688 33.625 89.429688 34.683594 L 89.429688 38.347656 L 85.890625 38.347656 L 85.890625 34.683594 C 85.890625 33.625 85.035156 32.769531 83.980469 32.769531 L 74.421875 32.769531 C 73.363281 32.769531 72.507812 33.625 72.507812 34.683594 L 72.507812 38.347656 L 9.558594 38.347656 C 4.289062 38.347656 0 42.636719 0 47.910156 L 0 77.777344 C 0 82.394531 3.289062 86.257812 7.648438 87.144531 L 7.648438 93.316406 C 7.648438 94.375 8.503906 95.230469 9.558594 95.230469 L 32.644531 95.230469 C 33.699219 95.230469 34.554688 94.375 34.554688 93.316406 L 34.554688 87.335938 L 93.445312 87.335938 L 93.445312 93.316406 C 93.445312 94.375 94.300781 95.230469 95.355469 95.230469 L 118.441406 95.230469 C 119.496094 95.230469 120.351562 94.375 120.351562 93.316406 L 120.351562 87.144531 C 124.710938 86.257812 128 82.394531 128 77.777344 L 128 47.910156 C 128 42.636719 123.710938 38.347656 118.441406 38.347656 Z M 93.253906 36.59375 L 98.988281 36.59375 L 98.988281 38.347656 L 93.253906 38.347656 Z M 76.332031 36.59375 L 82.066406 36.59375 L 82.066406 38.347656 L 76.332031 38.347656 Z M 30.730469 91.40625 L 11.472656 91.40625 L 11.472656 87.335938 L 30.730469 87.335938 Z M 116.527344 91.40625 L 97.269531 91.40625 L 97.269531 87.335938 L 116.527344 87.335938 Z M 118.441406 83.515625 C 116.480469 83.515625 13.941406 83.515625 9.558594 83.515625 C 6.398438 83.515625 3.824219 80.941406 3.824219 77.777344 L 3.824219 47.910156 C 3.824219 44.746094 6.398438 42.171875 9.558594 42.171875 L 118.441406 42.171875 C 121.601562 42.171875 124.175781 44.746094 124.175781 47.910156 L 124.175781 77.777344 C 124.175781 80.941406 121.601562 83.515625 118.441406 83.515625 Z M 118.441406 83.515625 "/>
<path style=" stroke:none;fill-rule:nonzero;fill:rgb(0%,0%,0%);fill-opacity:1;" d="M 100.902344 45.0625 C 91.097656 45.0625 83.121094 53.039062 83.121094 62.84375 C 83.121094 72.648438 91.097656 80.625 100.902344 80.625 C 110.707031 80.625 118.683594 72.648438 118.683594 62.84375 C 118.683594 53.039062 110.707031 45.0625 100.902344 45.0625 Z M 100.902344 76.800781 C 93.207031 76.800781 86.945312 70.539062 86.945312 62.84375 C 86.945312 55.148438 93.207031 48.886719 100.902344 48.886719 C 108.597656 48.886719 114.859375 55.148438 114.859375 62.84375 C 114.859375 70.539062 108.597656 76.800781 100.902344 76.800781 Z M 100.902344 76.800781 "/>
<path style=" stroke:none;fill-rule:nonzero;fill:rgb(0%,0%,0%);fill-opacity:1;" d="M 100.902344 51.851562 C 94.839844 51.851562 89.90625 56.78125 89.90625 62.84375 C 89.90625 68.90625 94.839844 73.835938 100.902344 73.835938 C 106.964844 73.835938 111.894531 68.90625 111.894531 62.84375 C 111.894531 56.78125 106.964844 51.851562 100.902344 51.851562 Z M 100.902344 70.011719 C 96.949219 70.011719 93.730469 66.796875 93.730469 62.84375 C 93.730469 58.890625 96.949219 55.671875 100.902344 55.671875 C 104.855469 55.671875 108.070312 58.890625 108.070312 62.84375 C 108.070312 66.796875 104.855469 70.011719 100.902344 70.011719 Z M 100.902344 70.011719 "/>
<path style=" stroke:none;fill-rule:nonzero;fill:rgb(0%,0%,0%);fill-opacity:1;" d="M 32.261719 53.570312 L 12.375 53.570312 C 11.320312 53.570312 10.464844 54.425781 10.464844 55.480469 C 10.464844 56.539062 11.320312 57.394531 12.375 57.394531 L 32.261719 57.394531 C 33.316406 57.394531 34.171875 56.539062 34.171875 55.480469 C 34.171875 54.425781 33.316406 53.570312 32.261719 53.570312 Z M 32.261719 53.570312 "/>
<path style=" stroke:none;fill-rule:nonzero;fill:rgb(0%,0%,0%);fill-opacity:1;" d="M 43.476562 53.570312 L 38.378906 53.570312 C 37.324219 53.570312 36.46875 54.425781 36.46875 55.480469 C 36.46875 56.539062 37.324219 57.394531 38.378906 57.394531 L 43.476562 57.394531 C 44.535156 57.394531 45.390625 56.539062 45.390625 55.480469 C 45.390625 54.425781 44.535156 53.570312 43.476562 53.570312 Z M 43.476562 53.570312 "/>
<path style=" stroke:none;fill-rule:nonzero;fill:rgb(0%,0%,0%);fill-opacity:1;" d="M 32.261719 60.929688 L 12.375 60.929688 C 11.320312 60.929688 10.464844 61.785156 10.464844 62.84375 C 10.464844 63.898438 11.320312 64.753906 12.375 64.753906 L 32.261719 64.753906 C 33.316406 64.753906 34.171875 63.898438 34.171875 62.84375 C 34.171875 61.785156 33.316406 60.929688 32.261719 60.929688 Z M 32.261719 60.929688 "/>
<path style=" stroke:none;fill-rule:nonzero;fill:rgb(0%,0%,0%);fill-opacity:1;" d="M 43.476562 60.929688 L 38.378906 60.929688 C 37.324219 60.929688 36.46875 61.785156 36.46875 62.84375 C 36.46875 63.898438 37.324219 64.753906 38.378906 64.753906 L 43.476562 64.753906 C 44.535156 64.753906 45.390625 63.898438 45.390625 62.84375 C 45.390625 61.785156 44.535156 60.929688 43.476562 60.929688 Z M 43.476562 60.929688 "/>
<path style=" stroke:none;fill-rule:nonzero;fill:rgb(0%,0%,0%);fill-opacity:1;" d="M 32.261719 68.292969 L 12.375 68.292969 C 11.320312 68.292969 10.464844 69.148438 10.464844 70.203125 C 10.464844 71.261719 11.320312 72.117188 12.375 72.117188 L 32.261719 72.117188 C 33.316406 72.117188 34.171875 71.261719 34.171875 70.203125 C 34.171875 69.148438 33.316406 68.292969 32.261719 68.292969 Z M 32.261719 68.292969 "/>
<path style=" stroke:none;fill-rule:nonzero;fill:rgb(0%,0%,0%);fill-opacity:1;" d="M 43.476562 68.292969 L 38.378906 68.292969 C 37.324219 68.292969 36.46875 69.148438 36.46875 70.203125 C 36.46875 71.261719 37.324219 72.117188 38.378906 72.117188 L 43.476562 72.117188 C 44.535156 72.117188 45.390625 71.261719 45.390625 70.203125 C 45.390625 69.148438 44.535156 68.292969 43.476562 68.292969 Z M 43.476562 68.292969 "/>
</g>
</svg>
