<?xml version="1.0" encoding="UTF-8"?>
<svg xmlns="http://www.w3.org/2000/svg" xmlns:xlink="http://www.w3.org/1999/xlink" width="120px" height="85px" viewBox="0 0 400 85" version="1.1">
<g id="surface1">
<path style=" stroke:none;fill-rule:nonzero;fill:rgb(0%,0%,0%);fill-opacity:1;" d="M 347.09375 13.945312 C 339.632812 21.050781 333.328125 26.828125 333.132812 26.796875 C 332.898438 26.761719 329.417969 23.742188 325.335938 20.085938 C 321.289062 16.4375 317.441406 13.046875 316.8125 12.515625 L 315.652344 11.621094 L 303.777344 11.621094 C 297.246094 11.621094 291.839844 11.753906 291.738281 11.921875 C 291.574219 12.152344 306.199219 26.628906 310.3125 30.3125 L 311.707031 31.542969 L 319.367188 31.578125 C 323.578125 31.609375 327.027344 31.710938 327.027344 31.808594 C 327.027344 31.941406 317.839844 40.671875 306.628906 51.234375 C 295.421875 61.824219 286.234375 70.589844 286.234375 70.757812 C 286.234375 70.921875 292.867188 71.054688 302.285156 71.054688 L 318.339844 71.054688 L 326.035156 63.1875 L 333.695312 55.28125 L 347.855469 69.625 L 362.019531 84.003906 L 380.027344 84.003906 C 389.914062 84.003906 398.003906 83.871094 398.003906 83.738281 C 398.003906 83.570312 394.6875 80.617188 390.640625 77.132812 C 386.5625 73.644531 377.308594 65.710938 370.011719 59.46875 L 356.8125 48.144531 L 348.71875 48.144531 C 344.273438 48.144531 340.625 48.046875 340.625 47.914062 C 340.625 47.78125 342.980469 45.289062 345.867188 42.367188 C 348.753906 39.414062 353.859375 34.164062 357.210938 30.710938 C 360.59375 27.226562 368.320312 19.289062 374.390625 13.082031 C 380.425781 6.839844 385.402344 1.5625 385.402344 1.359375 C 385.402344 1.09375 381.851562 0.996094 373.0625 0.996094 L 360.691406 1.03125 Z M 347.09375 13.945312 "/>
<path style=" stroke:none;fill-rule:nonzero;fill:rgb(0%,0%,0%);fill-opacity:1;" d="M 235.621094 21.050781 C 233.828125 21.882812 232.503906 23.34375 231.875 25.203125 C 231.609375 26 231.507812 31.542969 231.507812 43.53125 L 231.507812 60.761719 L 240.464844 60.761719 L 240.464844 45.851562 C 240.464844 37.652344 240.5625 30.710938 240.664062 30.414062 C 240.761719 30.117188 241.226562 29.882812 241.65625 29.882812 C 242.652344 29.882812 242.75 30.046875 253.398438 46.1875 C 258.308594 53.65625 262.023438 58.96875 262.617188 59.398438 C 266.664062 62.289062 273.164062 62.488281 276.316406 59.867188 C 278.636719 57.90625 278.605469 58.273438 278.605469 38.75 L 278.605469 21.25 L 269.648438 21.25 L 269.648438 36.324219 C 269.648438 52.359375 269.648438 52.359375 268.089844 52.0625 C 267.726562 51.996094 263.714844 46.285156 257.84375 37.519531 C 250.945312 27.160156 247.828125 22.8125 246.929688 22.179688 C 244.113281 20.121094 238.738281 19.589844 235.621094 21.050781 Z M 235.621094 21.050781 "/>
<path style=" stroke:none;fill-rule:nonzero;fill:rgb(0%,0%,0%);fill-opacity:1;" d="M 10.519531 21.617188 C 8.660156 22.046875 6.273438 23.375 5.078125 24.636719 C 4.484375 25.234375 3.585938 26.628906 3.089844 27.726562 C 2.261719 29.515625 2.160156 30.082031 2.160156 33.203125 C 2.160156 36.492188 2.226562 36.855469 3.253906 38.914062 C 4.484375 41.40625 5.644531 42.566406 8.296875 43.796875 L 10.121094 44.65625 L 21.5625 44.824219 C 31.945312 44.992188 33.136719 45.054688 33.96875 45.585938 C 36.457031 47.25 36.058594 51.101562 33.269531 52.164062 C 32.808594 52.328125 26.105469 52.460938 17.714844 52.460938 L 2.988281 52.460938 L 2.988281 60.796875 L 19.339844 60.695312 C 35.0625 60.59375 35.726562 60.5625 37.351562 59.898438 C 38.28125 59.5 39.605469 58.769531 40.269531 58.238281 C 42.824219 56.210938 44.78125 52.195312 44.78125 48.976562 C 44.78125 45.390625 42.589844 41.335938 39.640625 39.34375 C 36.652344 37.386719 35.261719 37.1875 24.148438 37.1875 C 13.207031 37.1875 12.410156 37.054688 11.480469 35.226562 C 10.816406 33.96875 10.816406 33.101562 11.449219 31.875 C 12.507812 29.816406 12.011719 29.882812 28.097656 29.882812 L 42.789062 29.882812 L 42.789062 21.25 L 27.300781 21.28125 C 18.746094 21.316406 11.214844 21.449219 10.519531 21.617188 Z M 10.519531 21.617188 "/>
<path style=" stroke:none;fill-rule:nonzero;fill:rgb(0%,0%,0%);fill-opacity:1;" d="M 63.683594 21.78125 C 56.519531 23.308594 50.453125 29.285156 48.726562 36.523438 C 48.128906 38.945312 48.195312 43.496094 48.859375 46.054688 C 50.21875 51.265625 54.363281 56.34375 59.074219 58.601562 C 63.21875 60.5625 64.8125 60.761719 77.21875 60.761719 L 88.226562 60.761719 L 88.226562 52.492188 L 77.382812 52.394531 L 66.503906 52.296875 L 64.648438 51.429688 C 62.027344 50.203125 60.234375 48.445312 58.976562 45.886719 C 58.011719 43.960938 57.878906 43.363281 57.878906 41.007812 C 57.878906 38.847656 58.046875 38.015625 58.742188 36.523438 C 59.871094 34.132812 61.960938 32.007812 64.28125 30.945312 L 66.171875 30.046875 L 88.0625 29.71875 L 88.160156 25.46875 L 88.261719 21.25 L 77.050781 21.28125 C 68.792969 21.316406 65.277344 21.449219 63.683594 21.78125 Z M 63.683594 21.78125 "/>
<path style=" stroke:none;fill-rule:nonzero;fill:rgb(0%,0%,0%);fill-opacity:1;" d="M 96.1875 21.847656 C 95.558594 22.148438 94.761719 22.945312 94.363281 23.574219 C 93.734375 24.703125 93.699219 25.234375 93.699219 42.664062 L 93.699219 60.59375 L 98.113281 60.695312 L 102.488281 60.796875 L 102.488281 45.789062 L 113.367188 45.886719 C 121.496094 45.953125 124.414062 46.085938 125.078125 46.417969 C 126.703125 47.28125 126.867188 47.878906 127.035156 54.453125 L 127.199219 60.59375 L 131.609375 60.695312 L 136.054688 60.796875 L 135.890625 53.554688 C 135.824219 49.140625 135.589844 45.820312 135.359375 45.023438 C 135.125 44.328125 134.296875 43.132812 133.535156 42.335938 L 132.109375 40.9375 L 133.535156 39.445312 C 135.988281 36.820312 136.71875 32.207031 135.257812 28.320312 C 134.199219 25.398438 131.476562 22.84375 128.558594 21.945312 C 126.402344 21.28125 125.574219 21.25 111.808594 21.25 C 98.710938 21.25 97.25 21.316406 96.1875 21.847656 Z M 124.710938 30.148438 C 125.972656 30.8125 127.035156 32.539062 127.035156 33.867188 C 127.035156 34.960938 125.972656 36.65625 124.8125 37.421875 C 124.015625 37.953125 122.855469 38.015625 113.367188 38.117188 L 102.820312 38.21875 L 102.820312 34.101562 C 102.820312 31.84375 102.921875 29.882812 103.054688 29.78125 C 103.152344 29.648438 107.828125 29.550781 113.402344 29.550781 C 122.621094 29.550781 123.683594 29.617188 124.710938 30.148438 Z M 124.710938 30.148438 "/>
<path style=" stroke:none;fill-rule:nonzero;fill:rgb(0%,0%,0%);fill-opacity:1;" d="M 143.75 21.882812 C 141.261719 23.007812 141.296875 22.710938 141.296875 40.804688 C 141.296875 59.070312 141.296875 59 143.75 60.132812 C 145.007812 60.695312 146.269531 60.761719 163.117188 60.761719 L 181.09375 60.761719 L 181.09375 52.460938 L 166.070312 52.460938 C 154.828125 52.460938 150.945312 52.359375 150.648438 52.0625 C 150.382812 51.796875 150.25 50.46875 150.25 48.242188 L 150.25 44.824219 L 180.761719 44.824219 L 180.761719 37.1875 L 150.25 37.1875 L 150.25 34.066406 C 150.25 32.339844 150.347656 30.710938 150.449219 30.414062 C 150.613281 29.949219 152.304688 29.882812 165.871094 29.882812 L 181.09375 29.882812 L 181.09375 21.25 L 163.117188 21.25 C 146.304688 21.25 145.007812 21.316406 143.75 21.882812 Z M 143.75 21.882812 "/>
<path style=" stroke:none;fill-rule:nonzero;fill:rgb(0%,0%,0%);fill-opacity:1;" d="M 188.757812 21.847656 C 188.125 22.179688 187.332031 22.976562 187 23.609375 C 186.433594 24.636719 186.402344 25.867188 186.402344 41.007812 C 186.402344 59.203125 186.367188 58.902344 188.722656 60.164062 C 189.785156 60.726562 191.046875 60.761719 207.859375 60.761719 L 225.871094 60.761719 L 225.871094 52.460938 L 210.710938 52.394531 L 195.523438 52.296875 L 195.421875 48.542969 L 195.324219 44.824219 L 225.871094 44.824219 L 225.871094 37.1875 L 195.324219 37.1875 L 195.421875 33.601562 L 195.523438 30.046875 L 210.710938 29.949219 L 225.871094 29.882812 L 225.871094 21.25 L 207.859375 21.25 C 191.078125 21.25 189.785156 21.28125 188.757812 21.847656 Z M 188.757812 21.847656 "/>
</g>
</svg>
